<svg width="305" height="366" viewBox="0 0 305 366" fill="none" xmlns="http://www.w3.org/2000/svg">
<path d="M289.973 284.703C298.272 284.703 305 277.975 305 269.676C305 261.377 298.272 254.649 289.973 254.649C281.674 254.649 274.946 261.377 274.946 269.676C274.946 277.975 281.674 284.703 289.973 284.703Z" fill="url(#paint0_linear_1079_191)"/>
<path d="M52.9118 60.6005C46.5128 65.0272 39.4126 65.8496 37.0521 62.4372C34.6916 59.0248 37.9662 52.6696 44.3652 48.2429C50.7642 43.8162 57.8645 42.9939 60.225 46.4063C62.5854 49.8187 59.3129 56.1738 52.9118 60.6005Z" fill="url(#paint1_linear_1079_191)"/>
<path d="M19.0424 258.456C24.5356 264.678 26.2992 272.097 22.9829 275.025C19.6644 277.956 12.5224 275.286 7.0292 269.063C1.536 262.841 -0.227586 255.423 3.09087 252.493C6.40934 249.563 13.5513 252.232 19.0445 258.454L19.0424 258.456Z" fill="url(#paint2_linear_1079_191)"/>
<path d="M258.444 42.2196C268.543 50.1464 273.905 60.1727 270.419 64.6161C266.932 69.0595 255.918 66.2357 245.817 58.3089C235.717 50.3822 230.356 40.3559 233.841 35.9125C237.328 31.4691 248.342 34.2929 258.444 42.2196Z" fill="url(#paint3_linear_1079_191)"/>
<path d="M151.017 319.297C233.498 319.297 300.363 255.796 300.363 177.465C300.363 99.1331 233.498 35.6328 151.017 35.6328C68.5361 35.6328 1.67188 99.1331 1.67188 177.465C1.67188 255.796 68.5361 319.297 151.017 319.297Z" fill="url(#paint4_linear_1079_191)"/>
<path d="M263.72 261.169L261.447 257.765L259.861 256.308L259.245 234.972L257.89 235.016V234.974L260.226 234.784L260.136 231.654L260.8 231.62L256.734 212.371L255.814 194.366L258.623 131.716L260.662 133.344L260.422 121.883L219.06 97.9739L219.711 120.523L222.251 120.675L223.825 171.848L221.473 172.038L221.527 173.948L223.883 173.756L224.484 193.278L215.975 178.331L215.141 147.319L209.756 128.143L204.672 148.646L205.471 179.458L195.793 221.237L194.395 221.35L194.575 227.552L200.961 227.035L206.78 309.072C229.191 300.5 248.908 286.915 264.392 269.78L263.72 261.163V261.169ZM248.559 133.607L255.966 137.071L254.459 160.154L247.776 156.631L248.559 133.607ZM235.46 127.496L234.811 153.14L227.903 152.265L226.747 122.702L235.46 127.496ZM235.175 188.616L228.786 187.808L228.222 173.405H228.256L228.174 171.493H228.149L227.717 160.474L235.774 164.907L235.175 188.616ZM244.516 191.175L237.731 188.186L238.349 165.14L245.94 168.947L244.516 191.175ZM244.917 155.905L237.577 152.674L238.245 127.746L246.455 131.864L244.915 155.905H244.917ZM253.338 195.1L247.159 191.842L247.883 170.554L254.73 173.758L253.338 195.098V195.1Z" fill="url(#paint5_linear_1079_191)" fill-opacity="0.13"/>
<path d="M115.746 174.522L109.58 174.305L109.296 159.618L111.928 159.405L111.738 152.843L109.169 153.052L109.111 150.067L111.59 149.867L111.4 143.305L108.983 143.501L107.794 81.8907L108.297 81.8489L108.069 73.9744L80.839 76.1846L81.0665 84.0591L81.989 83.984L84.1032 145.52L82.2124 145.674L82.4023 152.236L84.3287 152.079L84.4309 155.06L82.5484 155.212L82.7383 161.774L84.6563 161.617L84.8525 167.336C84.6417 167.797 84.4643 168.678 84.3704 170.216L84.6292 186.251L81.3441 191.872C81.2732 195.662 81.8993 196.44 81.8993 196.44L84.7148 191.475L85.1405 217.933L83.7714 216.399L83.6044 212.744L83.0117 212.083L83.3561 218.797L85.1885 221.03L85.3534 231.28L84.3537 238.777L83.6065 238.837L83.7589 244.086L84.696 244.009L84.7565 245.879L82.2228 245.403L82.1831 234.853L62.6543 236.339L62.6501 236.23L84.0865 234.49L83.9342 229.241L78.5829 229.675L78.2031 190.1L80.6846 189.92L80.6491 189.803L80.9225 189.78L80.8119 185.963L79.5054 186.069L73.1836 165.416L69.3037 165.946L68.9155 157.153L70.437 145.067L71.5808 145.188C71.5808 145.188 69.4999 133.876 69.2119 133.719C68.9239 133.565 65.7536 140.815 64.8812 144.476L65.81 144.574L64.8729 155.149L65.3779 164.923L67.4045 163.765L70.3953 202.445L59.0562 205.924L56.6915 169.886L64.1361 166.443L63.8231 165.034L63.7709 160.025L61.8236 157.729L61.5628 145.553L57.5973 146.233L56.7291 128.725L49.5412 130.743L50.3301 148.617L21.3113 163.168L22.2192 178.882L26.7377 178.514L33.6898 265.218C55.3975 291.359 86.5827 310.069 122.324 316.677L115.754 174.52L115.746 174.522ZM32.7193 212.352L30.8722 181.889L38.2333 177.467L39.1788 210.156L32.7214 212.354L32.7193 212.352ZM42.4931 209.891L42.3449 207.704L42.1884 207.758L41.293 193.003L41.3473 192.999L41.0885 189.192H41.0613L40.8297 185.381L40.2662 177.057L50.9792 170.936L53.4148 207.043L42.4931 209.896V209.891ZM83.9885 89.0828L90.3081 88.3293L90.4876 111.275L85.0591 111.477L83.9885 89.0828ZM85.9691 142.973L84.8984 120.579L91.2181 119.828L91.3976 142.773L85.9691 142.973ZM91.646 88.7008L97.9656 87.9495L98.1451 110.895L92.7166 111.095L91.646 88.7008ZM94.115 142.792L93.0443 120.397L99.364 119.646L99.5435 142.591L94.115 142.792ZM106.4 87.2649L106.579 110.21L101.151 110.411L100.08 88.0162L106.4 87.2649ZM101.66 142.658L100.589 120.264L106.909 119.51L107.088 142.458L101.66 142.658Z" fill="url(#paint6_linear_1079_191)" fill-opacity="0.13"/>
<path d="M276.555 156.867L273.936 161.398L273.694 146.695C273.694 146.695 272.032 142.525 271.667 148.655L271.93 164.865L268.647 170.544C268.576 174.376 269.204 175.163 269.204 175.163L272.018 170.147L272.452 196.893L271.083 195.341L270.916 191.646L270.323 190.977L270.67 197.766L272.504 200.024L275.188 256.292C275.704 255.559 276.215 254.822 276.718 254.082L274.898 220.068L276.856 216.518L276.783 209.706L276.33 210.462L276.386 214.164L274.842 216.748L274.395 189.468L276.845 185.786L276.799 178.974L276.248 179.735L276.294 183.44L274.341 186.151L274.019 166.576L277.213 160.883C277.296 157.527 276.553 156.869 276.553 156.869L276.555 156.867Z" fill="url(#paint7_linear_1079_191)" fill-opacity="0.13"/>
<path d="M112.225 88.2275L112.473 96.8179L114.099 96.6864L114.458 109.094L112.832 109.226L113.08 117.814L114.869 117.668C115.867 126.239 130.236 249.688 130.278 251.07C130.32 252.502 128.531 259.583 128.531 259.583L134.826 318.468C135.297 318.516 135.771 318.564 136.245 318.608L130.165 259.69L131.634 250.961L116.397 117.545L128.694 116.547L118.88 117.822L140.05 318.919C143.673 319.169 147.329 319.299 151.019 319.299C166.134 319.299 180.725 317.164 194.477 313.198L185.942 131.514L182.1 132.305L182.349 140.895L174.658 133.864L175.549 110.355L179.402 105.736L179.418 93.777L173.169 99.0678L170.895 133.215L168.096 133.864L167.983 113.36L171.16 113.101L170.911 104.513L169.225 104.651L168.866 92.243L170.552 92.1074L170.304 83.5169L162.354 84.1618C162.555 78.4182 162.849 68.1956 162.45 66.695C161.891 64.5892 154.2 64.8542 154.2 64.8542L153.887 74.3859C153.887 74.3859 160.048 74.4235 159.977 75.1477C159.933 75.6027 159.843 80.6722 159.783 84.3726L112.227 88.2316L112.225 88.2275Z" fill="#80D1E5"/>
<path d="M280.162 231.493L281.172 247.062C281.562 246.405 281.95 245.745 282.33 245.082L281.518 231.384L280.162 231.495V231.493Z" fill="#80D1E5"/>
<path d="M261.917 191.037L267.203 266.867C267.593 266.383 270.392 262.703 270.776 262.215L266.919 187.005L261.915 191.037H261.917Z" fill="url(#paint8_linear_1079_191)" fill-opacity="0.13"/>
<path d="M151.222 365.63C234.739 365.63 302.443 343.773 302.443 316.811C302.443 289.849 234.739 267.992 151.222 267.992C67.7042 267.992 0 289.849 0 316.811C0 343.773 67.7042 365.63 151.222 365.63Z" fill="#F9CE0A"/>
<path opacity="0.3" d="M151.222 343.116C213.53 343.116 264.041 329.075 264.041 311.754C264.041 294.433 213.53 280.391 151.222 280.391C88.9133 280.391 38.4023 294.433 38.4023 311.754C38.4023 329.075 88.9133 343.116 151.222 343.116Z" fill="#F2BD42"/>
<path opacity="0.8" d="M302.32 314.824C299.091 288.783 232.678 267.992 151.222 267.992C99.3033 267.992 53.4981 276.438 26.2659 289.307C37.6446 285.121 63.7916 276.818 85.6204 279.665C85.6204 279.665 57.2361 292.605 58.697 296.153L62.2451 299.283C62.2451 299.283 84.7856 293.231 98.3516 295.527C98.3516 295.527 107.535 311.806 155.327 312.015C155.327 312.015 182.876 313.267 196.86 299.283C196.86 299.283 214.183 294.483 232.549 298.866L237.932 295.637C244.808 294.892 250.156 292.473 251.539 289.435C268.856 293.356 289.349 300.784 302.32 314.824Z" fill="#E99223"/>
<path d="M261.153 242.951C261.207 243.274 261.368 245.913 261.637 245.994C261.906 246.075 262.284 246.102 262.336 245.833C262.39 245.564 262.148 242.872 262.148 242.872L262.015 241.58C262.015 241.58 262.365 243.222 262.417 243.383C262.472 243.546 262.687 245.295 262.822 245.349C262.956 245.403 263.306 245.295 263.388 245.186C263.469 245.078 263.469 244.136 263.469 243.894C263.469 243.652 263.227 241.444 263.227 241.444C263.227 241.444 263.657 244.675 263.738 244.702C263.82 244.729 264.035 244.675 264.062 244.566C264.089 244.458 264.143 243.759 264.143 243.435C264.143 243.112 263.847 241.039 263.847 241.039L264.521 243.462C264.521 243.462 264.709 243.193 264.736 243.06C264.763 242.924 264.682 242.091 264.628 241.686C264.573 241.281 264.25 240.152 264.143 239.695C263.966 238.938 263.981 238.155 263.751 237.42C263.513 236.663 263.119 235.949 262.964 235.166C262.868 234.676 262.831 234.237 262.824 233.745C261.756 234.242 260.332 234.484 259.193 234.653C258.924 234.692 258.75 234.701 258.736 234.661C259.017 235.45 259.082 236.045 258.794 236.827C258.51 237.596 258.583 238.401 258.55 239.211C258.514 240.083 258.437 240.954 258.241 241.807C258.174 242.097 257.947 242.761 258.37 242.888C258.817 243.022 259.199 242.246 259.328 241.953C259.654 241.215 259.694 240.419 259.794 239.626C259.775 239.779 260.186 240.303 260.268 240.465C260.414 240.764 260.541 241.071 260.666 241.379C260.867 241.876 261.067 242.421 261.155 242.953L261.153 242.951Z" fill="#F7A584"/>
<path d="M233.323 193.256C233.323 193.256 231.545 191.882 227.872 197.081L222.423 205.438L211.106 206.83C211.106 206.83 209.491 208.354 210.935 210.975C210.935 210.975 222.07 211.877 224.706 211.027C227.344 210.178 234.978 200.563 234.978 200.563C234.978 200.563 238.46 194.545 233.321 193.256H233.323Z" fill="#2E428B"/>
<path d="M237.975 282.416C238.243 282.528 239.013 282.403 239.23 282.217C239.43 282.046 239.28 281.771 239.303 281.518C239.334 281.161 239.299 280.909 239.226 280.554C239.088 279.89 238.946 279.018 238.504 278.482C237.984 277.853 237.235 278.091 236.546 278.196C235.392 278.369 234.077 278.673 233.048 277.939C232.737 279.216 231.627 279.942 230.573 280.627C229.016 281.637 225.397 282.85 225.618 283.543C225.841 284.236 227.365 285.131 230.541 284.553L237.978 282.416H237.975Z" fill="#341D10"/>
<path d="M229.809 231.514L232.858 278.722C232.858 278.722 234.478 281.061 238.957 279.415L240.386 237.491L229.809 231.514Z" fill="#A73D24"/>
<path d="M243.922 282.668C243.892 282.77 243.876 282.896 243.874 283.044C243.851 284.004 243.283 285.143 243.613 286.085C243.705 286.348 243.98 286.446 244.078 286.705C244.274 287.218 244.078 287.805 244.124 288.335C244.172 288.854 244.249 289.384 244.301 289.91C244.496 291.845 245.731 294.671 247.862 295.178C249.661 295.606 250.617 293.534 250.799 292.085C251.043 290.165 250.137 288.892 249.461 287.189C248.883 285.73 249.079 283.843 249.281 282.313C248.037 282.789 246.395 282.424 245.115 282.261C244.46 282.178 244.055 282.188 243.922 282.668Z" fill="#341D10"/>
<path d="M235.845 191.552C235.845 191.552 231.207 193.17 229.936 196.634C228.665 200.099 227.776 211.012 227.776 211.012C227.776 211.012 233.175 221.406 250.517 218.866C250.517 218.866 251.723 206.855 251.723 206.682C251.723 206.508 253.693 198.886 252.295 196.981C250.899 195.075 245.117 191.264 245.117 191.264L235.842 191.552H235.845Z" fill="#596AB1"/>
<path d="M227.841 207.26C227.841 207.26 237.687 210.493 248.104 209.512L249.12 217.251L251.091 218.175C251.091 218.175 251.059 238.618 250.773 242.429C250.487 246.24 249.82 282.794 249.82 282.794C249.82 282.794 247.056 284.611 243.531 282.794L238.67 238.011C238.67 238.011 230.856 235.586 229.523 231.86C228.189 228.135 227.586 208.819 227.841 207.26Z" fill="#D95040"/>
<path d="M247.436 192.75C247.436 192.75 242.623 190.628 243.721 212.976L246.77 212.891C246.77 212.891 244.341 200.287 249.152 194.094L247.436 192.752V192.75Z" fill="#EF5123"/>
<path d="M234.24 192.231C234.24 192.231 229.905 200.157 230.715 208.992L227.903 208.343C227.903 208.343 227.142 195.956 233.286 192.404L234.24 192.231Z" fill="#EF5123"/>
<path d="M230.794 209.858C230.794 210.48 230.289 210.985 229.667 210.985C229.045 210.985 228.54 210.48 228.54 209.858C228.54 209.236 229.045 208.733 229.667 208.733C230.289 208.733 230.794 209.236 230.794 209.858Z" fill="#FFD150"/>
<path d="M240.273 216.209L239.789 217.292L239.766 217.305L239.054 216.95V216.938L239.668 215.913L239.142 215.846L238.522 216.67V217.802C238.522 217.802 237.032 220.225 236.997 220.279L237.704 220.492L238.155 220.859C238.18 220.799 239.351 218.209 239.351 218.209L240.288 217.574L240.649 216.668L240.271 216.211L240.273 216.209Z" fill="#555C5E"/>
<path d="M240.165 216.049L239.681 217.132L239.658 217.144L238.944 216.79V216.777L239.557 215.752L239.032 215.686L238.412 216.51V217.641C238.412 217.641 236.921 220.064 236.886 220.119L237.594 220.331L238.044 220.699C238.069 220.638 239.24 218.046 239.24 218.046L240.177 217.412L240.538 216.506L240.161 216.049H240.165Z" fill="#88939A"/>
<path d="M236.867 220.776C236.867 221.158 236.558 221.467 236.176 221.467C235.794 221.467 235.486 221.158 235.486 220.776V216.218C235.486 215.836 235.794 215.527 236.176 215.527C236.558 215.527 236.867 215.836 236.867 216.218V220.776Z" fill="#E51E25"/>
<path d="M234.139 220.632C234.139 221.014 233.831 221.323 233.449 221.323C233.067 221.323 232.758 221.014 232.758 220.632V216.074C232.758 215.692 233.067 215.383 233.449 215.383C233.831 215.383 234.139 215.692 234.139 216.074V220.632Z" fill="#406E34"/>
<path d="M229.669 217.877C229.669 217.877 237.89 219.348 242.162 219.206C242.162 219.206 241.48 228.36 241.335 228.646C241.191 228.934 234.191 230.262 229.919 226.421L229.669 217.877Z" fill="#A73D24"/>
<path d="M251.222 196.743C253.209 197.231 254.858 200.076 255.659 201.94C258.316 208.113 261.044 220.104 261.403 220.751C261.762 221.398 263.342 235.325 263.342 235.325L258.531 236.043C258.531 236.043 256.809 226.062 255.3 221.611C253.956 217.643 251.886 213.794 249.92 210.109C248.167 206.824 245.14 201.658 248.135 198.1C249.206 196.829 250.256 196.505 251.224 196.743H251.222Z" fill="#596AB1"/>
<path d="M244.103 190.455C244.103 190.455 245.881 191.033 245.819 192.072C245.756 193.112 241.373 197.442 237.115 197.789C237.115 197.789 236.289 196.981 236.354 192.824L236.416 191.784L244.103 190.455Z" fill="#FDDD6B"/>
<path d="M244.103 187.453L244.358 191.872C244.358 191.872 242.579 195.914 237.593 196.317C237.593 196.317 237.339 196.202 236.832 194.7L236.26 191.235L244.105 187.453H244.103Z" fill="#DC825F"/>
<path d="M232.476 183.133C232.729 185.759 233.24 188.23 234.885 190.451C239.259 196.357 244.548 187.764 245.395 183.935C245.787 182.163 246.278 178.934 245.332 177.223C243.671 174.221 239.263 173.063 235.997 174.466C231.975 176.192 232.15 179.746 232.476 183.131V183.133Z" fill="#F7B494"/>
<path d="M243.07 182.486L243.577 185.734C243.577 185.734 243.656 184.289 244.451 184.174C245.245 184.06 245.706 184.204 245.706 184.204L246.532 181.273L244.182 181.144L243.07 182.486Z" fill="#28201D"/>
<path opacity="0.3" d="M232.674 183.181C232.378 184.216 232.802 185.623 233.042 186.529C233.409 187.921 234.004 189.261 234.884 190.45C235.807 191.696 237.193 192.659 238.919 192.621C237.184 191.701 236.059 190.818 235.287 189.098C234.87 188.169 234.48 187.297 234.227 186.326C235.734 186.454 237.184 186.33 238.639 185.938C240.613 185.406 242.801 184.696 243.116 182.544C243.066 182.883 240.286 182.279 239.979 182.2C239.063 181.958 238.017 181.966 237.072 181.931C236.074 181.895 233.509 181.695 232.881 182.701C232.789 182.847 232.722 183.008 232.672 183.179L232.674 183.181Z" fill="#DC825F"/>
<path d="M231.906 180.883C231.906 180.883 231 173.737 239.052 173.391C239.052 173.391 246.105 172.654 246.533 181.274C246.533 181.274 237.289 183.699 231.906 180.883Z" fill="#D95040"/>
<path d="M232.033 180.263C232.033 180.263 228.761 183.035 230.952 184.392C233.144 185.748 238.226 187.049 245.309 181.649L245.499 181.505C245.499 181.505 235.684 182.689 232.033 180.263Z" fill="#9F1F33"/>
<path d="M243.834 186.965C243.272 186.024 243.909 183.544 245.483 183.753C246.169 183.845 246.125 184.496 246.017 184.98C245.892 185.55 244.637 188.311 243.834 186.963V186.965Z" fill="#F7B494"/>
<path d="M241.757 189.305C241.342 189.522 240.916 189.726 240.499 189.937C240.499 189.937 239.895 188.768 239.689 188.58C239.482 188.393 237.069 187.829 236.784 187.787C236.498 187.744 235.974 188.365 235.926 188.365C235.926 188.365 235.354 188.119 234.989 188.092C234.623 188.063 234.306 189.768 234.321 189.81C234.337 189.854 236.258 191.976 236.719 192.235C237.629 192.748 239.138 192.492 240.05 192.166C242.022 191.465 243.047 189.904 243.529 188.094C243.254 188.716 242.341 189 241.757 189.307V189.305ZM239.159 191.582C238.539 191.701 237.514 191.452 237.514 191.452C237.514 191.452 237.312 191.853 236.894 191.734C236.477 191.615 234.715 190.1 234.799 189.904C234.882 189.707 235.168 188.875 235.168 188.875C235.168 188.875 235.811 189.33 236.003 189.232C236.195 189.134 237.17 188.712 237.17 188.712C237.17 188.712 239.136 189.004 239.265 189.177C239.397 189.351 239.86 190.315 239.86 190.315C239.86 190.315 239.776 191.463 239.157 191.582H239.159Z" fill="#28201D"/>
<path d="M246.04 211.764C246.04 212.386 245.535 212.889 244.913 212.889C244.291 212.889 243.786 212.384 243.786 211.764C243.786 211.144 244.291 210.637 244.913 210.637C245.535 210.637 246.04 211.142 246.04 211.764Z" fill="#FFD150"/>
<path opacity="0.4" d="M73.5592 311.155C72.5657 314.707 61.9822 314.849 49.9209 311.474C37.8597 308.097 28.8873 302.483 29.8828 298.931C30.8763 295.379 41.4599 295.235 53.5211 298.611C65.5824 301.986 74.5547 307.603 73.5592 311.155Z" fill="#E99223"/>
<path opacity="0.4" d="M95.2252 327.355L89.3813 328.711C89.3813 328.711 105.521 341.094 142.116 329.129C142.116 329.129 147.265 328.016 154.361 322.728L125.141 313.545L95.2273 327.355H95.2252Z" fill="#E99223"/>
<path d="M201.5 254.409L201.7 254.359L205.277 253.468C205.277 253.468 230.36 264.419 238.583 293.204L236.823 293.515L224.159 284.388C224.159 284.388 209.249 273.084 209.04 272.859C208.831 272.634 201.5 254.407 201.5 254.407V254.409Z" fill="#B04134"/>
<path d="M201.499 254.409C201.499 254.409 223.865 261.643 236.823 293.517C236.823 293.517 215.086 288.318 198.782 294.648L201.499 254.411V254.409Z" fill="#D95040"/>
<path d="M100.881 242.638C100.881 242.638 104.054 279.114 109.382 294.337C111.807 301.391 129.581 306.357 154.083 306.357C155.285 306.357 156.475 306.344 157.654 306.319C157.827 306.319 157.999 306.319 158.172 306.321C158.172 306.321 158.666 306.306 159.545 306.267C170.995 305.887 181.109 304.33 188.201 302.051C190.613 301.297 192.788 300.413 194.535 299.373C197.265 297.8 198.254 296.564 198.791 294.185L206.444 241.995L100.881 242.64V242.638Z" fill="#5186ED"/>
<path d="M153.716 257.022C182.896 257.022 206.55 250.582 206.55 242.638C206.55 234.694 182.896 228.254 153.716 228.254C124.536 228.254 100.881 234.694 100.881 242.638C100.881 250.582 124.536 257.022 153.716 257.022Z" fill="#426DC0"/>
<path opacity="0.2" d="M112.688 242.949C112.688 249.943 132.202 255.611 156.272 255.611C180.343 255.611 199.857 249.943 199.857 242.949C199.857 235.955 180.345 230.287 156.272 230.287C132.2 230.287 112.688 235.955 112.688 242.949Z" fill="#0E192F"/>
<path opacity="0.8" d="M158.817 260.71H155.473V301.252H158.817V260.71Z" fill="#123435"/>
<path d="M108.117 253.954L107.917 253.904L104.339 253.013C104.339 253.013 79.2568 263.964 71.0337 292.749L72.7931 293.06L85.4575 283.933C85.4575 283.933 100.368 272.629 100.576 272.404C100.785 272.179 108.117 253.952 108.117 253.952V253.954Z" fill="#B04134"/>
<path d="M108.117 253.954C108.117 253.954 85.7519 261.188 72.7932 293.062C72.7932 293.062 94.5302 287.863 110.834 294.193L108.117 253.956V253.954Z" fill="#D95040"/>
<path d="M223.084 206.406V238.433C223.103 238.587 223.113 238.744 223.113 238.9C223.113 246.846 199.458 253.284 170.279 253.284C141.099 253.284 117.444 246.843 117.444 238.9V206.918L223.084 206.406Z" fill="#F2A51E"/>
<path d="M117.444 206.918C117.444 214.863 141.099 221.302 170.279 221.302C199.458 221.302 223.113 214.861 223.113 206.918C223.113 198.974 199.458 192.531 170.279 192.531C141.099 192.531 117.444 198.972 117.444 206.918Z" fill="#FDD148"/>
<path opacity="0.8" d="M203.263 208.886C203.263 216.151 183.705 222.041 159.581 222.041C135.456 222.041 115.898 216.151 115.898 208.886C115.898 201.621 135.456 195.733 159.581 195.733C183.705 195.733 203.263 201.623 203.263 208.886Z" fill="#E89723"/>
<path d="M93.6454 175.14V207.166C93.6266 207.32 93.6162 207.477 93.6162 207.633C93.6162 215.579 117.271 222.018 146.451 222.018C175.63 222.018 199.285 215.577 199.285 207.633V175.651L93.6454 175.14Z" fill="#D95040"/>
<path d="M199.285 175.651C199.285 183.597 175.63 190.035 146.451 190.035C117.271 190.035 93.6162 183.594 93.6162 175.651C93.6162 167.708 117.271 161.267 146.451 161.267C175.63 161.267 199.285 167.708 199.285 175.651Z" fill="#8E2726"/>
<path d="M93.6454 141.575V173.601C93.6266 173.756 93.6162 173.912 93.6162 174.069C93.6162 182.015 117.271 188.453 146.451 188.453C175.63 188.453 199.285 182.012 199.285 174.069V142.087L93.6454 141.575Z" fill="#F2BD42"/>
<path d="M146.451 156.471C175.63 156.471 199.285 150.031 199.285 142.087C199.285 134.142 175.63 127.702 146.451 127.702C117.271 127.702 93.6162 134.142 93.6162 142.087C93.6162 150.031 117.271 156.471 146.451 156.471Z" fill="#D65C5C"/>
<path d="M93.5744 111.037V143.063C93.5556 143.218 93.5452 143.374 93.5452 143.531C93.5452 151.476 117.2 157.915 146.38 157.915C175.559 157.915 199.214 151.474 199.214 143.531V111.548L93.5744 111.037Z" fill="#5186ED"/>
<path d="M146.38 125.93C175.559 125.93 199.214 119.49 199.214 111.546C199.214 103.602 175.559 97.1621 146.38 97.1621C117.2 97.1621 93.5452 103.602 93.5452 111.546C93.5452 119.49 117.2 125.93 146.38 125.93Z" fill="#9DADD7"/>
<path opacity="0.4" d="M101.704 103.866C104.538 111.083 126.972 116.703 154.233 116.703C173.038 116.703 189.547 114.028 198.909 110C196.075 102.783 173.639 97.1621 146.38 97.1621C127.575 97.1621 111.066 99.8377 101.704 103.866Z" fill="#364566"/>
<path d="M188.217 157.057C188.217 171.479 178.688 183.169 166.933 183.169C155.179 183.169 145.649 171.479 145.649 157.057C145.649 142.635 155.179 130.946 166.933 130.946C178.688 130.946 188.217 142.635 188.217 157.057Z" fill="#36628D"/>
<path d="M190.304 157.057C190.304 171.479 180.775 183.169 169.02 183.169C157.266 183.169 147.736 171.479 147.736 157.057C147.736 142.635 157.266 130.946 169.02 130.946C180.775 130.946 190.304 142.635 190.304 157.057Z" fill="#699BD2"/>
<path opacity="0.6" d="M168.476 179.143C178.025 179.143 185.767 169.255 185.767 157.057C185.767 144.86 178.025 134.972 168.476 134.972C158.926 134.972 151.184 144.86 151.184 157.057C151.184 169.255 158.926 179.143 168.476 179.143Z" fill="#ECF1F6"/>
<path opacity="0.2" d="M168.476 179.143C178.025 179.143 185.767 169.255 185.767 157.057C185.767 144.86 178.025 134.972 168.476 134.972C158.926 134.972 151.184 144.86 151.184 157.057C151.184 169.255 158.926 179.143 168.476 179.143Z" fill="url(#paint9_linear_1079_191)"/>
<path d="M170.654 134.969C170.289 134.969 169.926 134.986 169.565 135.013C178.606 135.731 185.767 145.324 185.767 157.055C185.767 168.786 178.606 178.379 169.565 179.097C169.926 179.126 170.289 179.141 170.654 179.141C180.203 179.141 187.946 169.252 187.946 157.055C187.946 144.858 180.205 134.969 170.654 134.969Z" fill="#36628D"/>
<path opacity="0.2" d="M164.16 178.45L185.577 153.781C185.529 153.365 185.471 152.954 185.406 152.547C179.932 157.612 173.535 163.012 173.816 160.296C174.119 157.389 178.942 149.738 182.595 144.303C182.213 143.612 181.797 142.951 181.357 142.322C174.751 147.098 164.598 154.112 166.75 150.481C168.805 147.012 171.869 140.265 173.741 136.015C173.487 135.911 173.23 135.815 172.971 135.727L152.48 165.458C152.605 165.848 152.739 166.234 152.881 166.612C158.856 160.484 168.872 151.107 170.575 155.194C172.458 159.71 166.374 172.481 163.433 178.191C163.673 178.285 163.913 178.373 164.157 178.452L164.16 178.45Z" fill="white"/>
<path d="M213.567 95.607C213.567 97.0157 212.484 98.1595 211.146 98.1595C209.808 98.1595 208.725 97.0157 208.725 95.607C208.725 94.1982 209.808 93.0544 211.146 93.0544C212.484 93.0544 213.567 94.1982 213.567 95.607Z" fill="#341D10"/>
<path d="M110.459 96.4568C110.459 97.8656 109.376 99.0093 108.038 99.0093C106.7 99.0093 105.617 97.8677 105.617 96.4568C105.617 95.0459 106.7 93.9043 108.038 93.9043C109.376 93.9043 110.459 95.0459 110.459 96.4568Z" fill="#341D10"/>
<path d="M106.857 99.556C106.857 99.556 116.224 36.1755 159.706 0.00219727C159.706 0.00219727 198.275 21.0943 212.526 99.556C212.526 99.556 215.414 112.872 157.936 114.001C157.936 114.001 111.795 114.27 106.857 99.556Z" fill="#D95040"/>
<path opacity="0.3" d="M159.766 0.03548C159.724 0.0125221 159.704 0 159.704 0C116.221 36.1733 106.854 99.5538 106.854 99.5538C109.359 107.019 122.472 110.628 134.782 112.371C132.352 58.5406 151.758 15.3818 159.766 0.0333941V0.03548Z" fill="white"/>
<path d="M161.014 107.059C161.014 108.468 159.931 109.612 158.593 109.612C157.256 109.612 156.172 108.47 156.172 107.059C156.172 105.648 157.256 104.507 158.593 104.507C159.931 104.507 161.014 105.65 161.014 107.059Z" fill="#341D10"/>
<path d="M198.818 102.806C198.818 104.214 197.734 105.358 196.397 105.358C195.059 105.358 193.976 104.214 193.976 102.806C193.976 101.397 195.059 100.253 196.397 100.253C197.734 100.253 198.818 101.395 198.818 102.806Z" fill="#341D10"/>
<path d="M120.984 102.741C120.984 104.005 120.064 105.03 118.926 105.03C117.789 105.03 116.868 104.005 116.868 102.741C116.868 101.476 117.789 100.451 118.926 100.451C120.064 100.451 120.984 101.476 120.984 102.741Z" fill="#4173A4"/>
<path opacity="0.9" d="M150.879 42.3259C150.122 45.4628 148.417 47.7419 147.07 47.4163C145.726 47.0908 145.251 44.2836 146.01 41.1467C146.768 38.0099 148.473 35.7308 149.819 36.0564C151.163 36.3819 151.639 39.1891 150.879 42.3259Z" fill="white"/>
<path opacity="0.4" d="M217.745 352.469C215.758 358.29 202.468 359.02 188.061 354.099C173.654 349.179 163.585 340.472 165.572 334.651C167.559 328.83 180.85 328.1 195.257 333.021C209.664 337.943 219.732 346.648 217.745 352.469Z" fill="#E99223"/>
<path d="M210.106 348.044C210.106 348.044 210.879 353.445 210.063 354.047C209.249 354.648 206.333 355.462 206.761 356.62C207.189 357.778 208.518 358.548 210.49 358.164C212.463 357.778 215.078 357.307 215.42 355.205C215.94 352.022 217.76 349.365 218.188 346.208C218.611 343.079 215.074 343.321 212.891 343.371C212.891 343.371 210.146 343.757 210.104 348.044H210.106Z" fill="#341D10"/>
<path d="M169.97 326.219C168.529 326.09 162.684 325.706 161.45 326.004C160.214 326.305 159.434 326.606 159.599 327.376C159.764 328.148 160.546 329.348 163.508 330.076C166.472 330.805 174.415 332.821 175.567 332.22C176.719 331.619 175.198 326.904 175.198 326.904L169.972 326.217L169.97 326.219Z" fill="#341D10"/>
<path d="M187.082 303.71C187.082 303.71 171.504 298.678 169.874 302.366C168.244 306.054 169.16 326.005 169.16 326.005C169.16 326.005 171.389 328.492 175.162 327.376C175.162 327.376 176.335 316.199 176.335 311.739C176.335 312.007 179.604 313.029 179.848 313.127C182.624 314.236 185.598 314.82 188.309 316.024C190.83 317.143 193.727 317.759 196.488 317.69C200.631 317.585 201.714 314.083 203.177 310.869C204.204 308.611 204.782 306.634 204.828 304.17C204.839 303.648 204.859 303.12 204.824 302.598C204.83 302.694 194.902 303.408 193.877 303.454C191.613 303.552 189.346 303.621 187.082 303.708V303.71Z" fill="#385CA3"/>
<path d="M186.568 301.909C186.568 301.909 181.509 335.352 184.596 338.183C187.683 341.013 210.236 348.386 210.236 348.386C210.236 348.386 210.065 344.784 213.323 343.413C213.323 343.413 199.516 334.666 194.372 333.722C195.017 330.085 194.854 326.052 196.206 322.577C197.492 319.278 201.311 318.407 202.929 315.477C204.492 312.643 204.695 309.863 204.713 306.67C204.722 305.436 204.757 304.194 204.717 302.961C204.724 303.132 194.374 302.654 193.278 302.552C191.041 302.341 188.801 302.126 186.566 301.907L186.568 301.909Z" fill="#426DC0"/>
<path d="M174.92 277.513C174.824 277.246 174.782 276.927 174.734 276.693C174.565 275.852 174.599 274.986 174.569 274.132C174.561 273.88 174.434 271.375 173.877 272.239C173.651 272.59 173.799 273.32 173.833 273.702C173.559 272.972 173.424 272.214 173.194 271.471C173.09 271.131 172.754 269.801 172.56 270.862C172.42 271.63 172.689 272.467 172.818 273.212C172.871 273.51 172.916 273.809 172.964 274.107C172.589 273.312 172.282 272.469 171.871 271.697C171.735 271.442 170.794 270 170.598 270.807C170.485 271.267 171.094 271.838 171.253 272.222C171.554 272.949 171.823 273.804 171.871 274.614C171.648 274.153 171.549 273.61 171.295 273.168C171.036 272.719 170.729 272.321 170.387 271.949C170.197 271.744 169.364 270.778 169.26 271.548C169.216 271.876 169.517 272.099 169.677 272.308C170.097 272.853 170.445 273.704 170.688 274.351C171.034 275.282 170.84 276.336 171.22 277.236C171.226 277.246 171.226 277.246 171.22 277.236C170.938 277.006 169.237 275.514 168.868 276.296C168.636 276.789 170.082 277.622 170.343 277.906C171.028 278.653 171.247 279.707 172.169 280.191C172.643 280.439 173.169 280.531 173.666 280.721C174.225 280.936 174.732 281.264 175.275 281.514C175.02 281.395 175.335 279.861 175.402 279.642C175.563 279.11 175.792 278.653 176.099 278.214C176.01 278.344 175.206 277.954 175.112 277.849C175.031 277.759 174.97 277.641 174.922 277.511L174.92 277.513Z" fill="#F7A584"/>
<path d="M166.396 284.004C166.422 283.864 166.447 283.724 166.474 283.585C166.624 282.769 166.874 281.948 166.887 281.113C166.891 280.754 166.856 279.949 166.444 280.623C166.15 281.107 165.948 281.633 165.733 282.153C165.653 282.343 165.568 282.529 165.495 282.721C165.282 281.109 164.881 279.509 164.33 277.979C164.207 277.638 163.817 276.309 163.589 277.369C163.424 278.137 163.74 278.974 163.892 279.719C163.952 280.018 164.007 280.316 164.061 280.615C163.623 279.819 163.264 278.976 162.784 278.204C162.625 277.949 161.527 276.507 161.298 277.315C161.168 277.774 161.878 278.346 162.062 278.73C162.412 279.456 162.727 280.312 162.784 281.122C162.523 280.661 162.408 280.118 162.112 279.675C161.809 279.227 161.45 278.828 161.054 278.457C160.832 278.25 159.858 277.286 159.737 278.056C159.684 278.384 160.037 278.607 160.223 278.816C160.5 279.124 160.665 279.471 160.816 279.857C161.106 280.602 161.291 281.343 161.617 282.074C161.475 281.756 160.027 279.824 159.53 280.072C159.073 280.302 160.006 281.627 160.158 281.848C160.715 282.666 160.891 283.785 161.137 284.728C161.317 285.419 161.565 286.202 162.172 286.632C162.884 287.133 163.66 287.212 164.508 287.224C165.43 287.239 165.929 287.694 166.76 288.024C166.461 287.905 166.831 286.371 166.908 286.152C167.096 285.619 167.363 285.162 167.722 284.724C167.254 284.613 166.778 284.553 166.338 284.348C166.359 284.234 166.378 284.119 166.399 284.006L166.396 284.004Z" fill="#F7A584"/>
<path d="M206.675 275.754C206.656 275.697 206.636 275.639 206.615 275.581C204.25 269.067 194.069 276.321 190.559 278.292L175.438 277.459C175.438 277.459 173.48 277.751 174.229 281.5C174.229 281.5 184.519 283.958 188.935 284.042C192.525 284.108 196.19 283.697 199.64 282.702C203.004 281.731 208.201 280.341 206.675 275.754Z" fill="#72332A"/>
<path d="M199.811 269.301L200.502 273.116C200.502 273.116 198.4 275.067 194.134 274.166L193.892 270.693C193.892 270.693 197.601 270.563 199.809 269.298L199.811 269.301Z" fill="#E48B6D"/>
<path d="M202.921 264.989C203.528 262.38 203.922 257.88 201.608 255.926C200.689 255.15 199.193 254.597 198.072 254.2C195.862 253.418 193.067 253.147 191.135 254.741C190.102 255.595 189.547 256.845 189.242 258.122C188.9 259.558 188.513 261.649 188.781 263.112C189.386 266.418 190.598 271.369 194.862 271.863C201.453 272.627 202.918 264.989 202.918 264.989H202.921Z" fill="#F7A584"/>
<path d="M195.593 267.458C196.367 268.618 197.855 269.353 199.174 269.687C201.666 270.317 203.044 266.241 203.664 264.481C204.822 261.188 204.488 257.356 202.119 254.66C198.726 250.803 190.44 251.56 188.242 256.43C187.491 258.097 187.881 259.646 187.683 261.365C187.781 260.514 188.029 259.679 188.267 258.861C188.161 260.322 189.017 261.549 190.158 262.365C190.423 262.555 193.401 263.918 193.366 264.026C193.875 262.497 195.034 263.018 195.72 264.047C196.303 264.922 196.887 266.873 195.593 267.458Z" fill="#341D10"/>
<path d="M194.072 273.481C194.072 273.481 186.568 276.438 186.353 291.96C186.353 291.96 186.397 297.962 186.353 299.077C186.31 300.191 185.281 301.565 185.667 302.42C186.053 303.278 193.886 308.765 205.204 304.08C205.204 304.08 205.546 296.99 205.546 293.446C205.546 289.902 209.435 278.811 207.89 275.439C206.346 272.066 199.83 272.007 199.83 272.007L194.069 273.479L194.072 273.481Z" fill="#A73D24"/>
<path d="M194.457 276.812C194.457 276.812 193.028 274.81 187.541 279.099L179.194 286.131L166.904 284.017C166.904 284.017 164.731 285.102 165.418 288.303C165.418 288.303 176.794 292.763 179.825 292.705C182.855 292.649 193.887 284.987 193.887 284.987C193.887 284.987 199.433 279.784 194.459 276.812H194.457Z" fill="#B8524F"/>
<path d="M150.725 319.125L150.733 319.267L150.91 321.816C150.91 321.816 128.259 335.989 94.3672 328.628L94.4215 327.43L107.457 323.675C107.457 323.675 128.182 315.811 128.483 315.782C128.781 315.753 150.725 319.125 150.725 319.125Z" fill="#B04134"/>
<path d="M150.725 319.125C150.725 319.125 132.828 333.247 94.4214 327.43C94.4214 327.43 109.912 312.816 106.583 300.231L150.723 319.125H150.725Z" fill="#D95040"/>
<path d="M83.7314 90.9426L36.6489 298.267L39.9841 300.638L87.0228 92.8168L83.7314 90.9426Z" fill="#59321F"/>
<path d="M39.9841 300.638L42.6493 300.152L89.9844 92.3137L87.0228 92.8167L39.9841 300.638Z" fill="#7A492D"/>
<path d="M83.7314 90.9488L86.8245 90.7151L89.9843 92.3138L87.0228 92.8168L83.7314 90.9488Z" fill="#965E41"/>
<path d="M50.4801 256.204L74.3563 267.011L73.2481 271.613L49.4053 260.706L50.4801 256.204Z" fill="#59321F"/>
<path d="M50.4802 256.204L52.4003 255.962L75.9051 266.341L74.3564 267.011L50.4802 256.204Z" fill="#965E41"/>
<path d="M56.0756 232.827L79.9518 243.634L78.8436 248.236L55.0007 237.328L56.0756 232.827Z" fill="#59321F"/>
<path d="M56.0754 232.827L57.9956 232.587L81.5003 242.966L79.9517 243.634L56.0754 232.827Z" fill="#965E41"/>
<path d="M61.2828 210.357L85.1591 221.166L84.0508 225.766L60.208 214.859L61.2828 210.357Z" fill="#59321F"/>
<path d="M61.2827 210.357L63.2028 210.117L86.7076 220.496L85.1589 221.166L61.2827 210.357Z" fill="#965E41"/>
<path d="M66.4423 187.898L90.3185 198.705L89.2103 203.307L65.3674 192.4L66.4423 187.898Z" fill="#59321F"/>
<path d="M66.4421 187.898L68.3623 187.656L91.867 198.037L90.3184 198.705L66.4421 187.898Z" fill="#965E41"/>
<path d="M72.0419 163.632L95.9181 174.438L94.8099 179.041L70.967 168.133L72.0419 163.632Z" fill="#59321F"/>
<path d="M72.0417 163.632L73.9619 163.392L97.4666 173.771L95.918 174.439L72.0417 163.632Z" fill="#965E41"/>
<path d="M77.8126 138.768L101.689 149.575L100.581 154.177L76.7378 143.27L77.8126 138.768Z" fill="#59321F"/>
<path d="M77.8125 138.768L79.7326 138.528L103.237 148.907L101.689 149.575L77.8125 138.768Z" fill="#965E41"/>
<path d="M83.4872 112.801L107.363 123.607L106.255 128.209L82.4124 117.3L83.4872 112.801Z" fill="#59321F"/>
<path d="M83.4873 112.801L85.4074 112.559L108.914 122.94L107.364 123.608L83.4873 112.801Z" fill="#965E41"/>
<path d="M45.8134 279.076L69.6896 289.883L68.5814 294.485L44.7385 283.578L45.8134 279.076Z" fill="#59321F"/>
<path d="M45.8135 279.076L47.7336 278.834L71.2383 289.215L69.6897 289.883L45.8135 279.076Z" fill="#965E41"/>
<path d="M111.911 101.785L63.7036 312.296L67.1202 313.939L115.284 102.931L111.911 101.785Z" fill="#59321F"/>
<path d="M67.0388 314.046L69.704 313.557L118.112 102.635L115.202 103.035L67.0388 314.046Z" fill="#7A492D"/>
<path d="M111.911 101.785L115.766 101.52L118.143 102.635L115.182 103.14L111.911 101.785Z" fill="#965E41"/>
<path d="M72.5404 85.0466L71.1003 90.1579C71.1003 90.1579 71.6221 92.6415 75.0261 93.6412C75.0261 93.6412 76.629 94.2778 78.4698 93.5181L78.9645 89.3898L72.5404 85.0466Z" fill="#DC8067"/>
<path d="M84.7102 88.5488C84.4493 89.2856 84.1154 89.9972 83.6959 90.6797C82.4228 92.7459 80.9243 92.9526 78.7224 92.1824C76.5143 91.4102 75.5083 89.7864 74.83 87.6263C72.937 88.7366 71.7912 85.4391 72.3839 84.0804C73.0121 82.6382 74.4522 82.8594 75.1076 84.0887C75.6606 81.0562 78.234 79.038 81.2582 78.6707C82.6607 78.4995 85.7079 78.9649 86.4342 80.4238C86.7013 80.9623 86.2714 81.4277 86.0752 81.9328C85.6578 83.0034 85.591 84.1764 85.4511 85.3055C85.3134 86.4221 85.0817 87.5094 84.7123 88.5488H84.7102Z" fill="#F7A584"/>
<path opacity="0.6" d="M83.6959 90.6775C84.1154 89.9951 84.4494 89.2834 84.7102 88.5466C85.0797 87.5073 85.3113 86.4199 85.4491 85.3033C85.5889 84.1721 85.6557 83.0013 86.0731 81.9306C86.2693 81.4255 86.6992 80.9601 86.4321 80.4216C86.0815 79.7183 85.1924 79.2466 84.2073 78.9648C84.201 78.9732 84.1989 78.9795 84.1989 78.9795C84.1989 78.9795 85.9375 86.4429 82.1306 92.27C82.7004 91.9715 83.2138 91.4581 83.6959 90.6775Z" fill="#DC8067"/>
<path d="M82.9613 73.2213C83.4226 73.5511 83.8462 73.9101 84.2136 74.2899C85.4303 75.5401 86.1879 76.9906 86.5887 78.677C86.9539 80.2151 87.4569 81.2482 85.5827 81.4465C84.5329 81.5592 83.1471 81.4778 82.1912 80.9498C82.5084 81.1251 82.857 81.2733 83.1492 81.4841C81.9783 81.4945 80.9577 81.2462 79.9163 80.716C80.0958 80.86 80.2502 81.0792 80.3817 81.2441C79.7681 81.027 79.119 80.7286 78.6077 80.3153C78.3551 81.553 77.8876 82.1853 77.1029 83.0744C76.3348 83.9468 76.3494 85.3348 75.4749 86.1863C75.8214 85.8503 75.8569 85.2742 75.8924 84.8109C75.8548 85.2513 75.571 85.7522 75.2579 86.0318C75.5125 85.2346 75.5793 84.2578 74.7758 83.7715C73.9409 83.2665 72.9037 83.7444 72.6303 84.6711C72.3318 85.6854 72.7555 87.0023 73.5047 87.7558C73.0644 87.4177 72.6073 87.0858 72.2087 86.6997C69.3202 83.9155 67.5336 76.0201 72.624 74.3797C72.8223 69.5919 80.6092 71.537 82.9655 73.2171L82.9613 73.2213Z" fill="#733F25"/>
<path d="M72.2336 79.9416C72.2336 79.9416 79.3527 82.7508 87.6426 82.4941C87.6426 82.4941 90.4768 82.2374 87.7365 79.4971L72.2336 79.9416Z" fill="#EBBF6A"/>
<path d="M68.4938 78.9354C68.2558 78.8582 69.3682 69.1303 78.4867 69.3181C78.4867 69.3181 87.7909 69.6938 87.7909 80.6844C87.7909 80.6844 77.8606 81.9951 68.4938 78.9354Z" fill="#F2BD42"/>
<path d="M73.8492 70.1762L73.6384 70.4099C73.6384 70.4099 84.1218 70.4412 83.982 80.933L84.8878 80.91L85.7477 78.4201L83.1242 72.401C83.1242 72.401 78.0881 68.7716 73.8513 70.1762H73.8492Z" fill="#A1752B"/>
<path d="M73.8491 70.1763C73.8491 70.1763 84.1155 69.3018 84.8647 80.9185L88.2375 80.6681C88.2375 80.6681 88.369 70.504 79.144 69.2872C79.144 69.2872 76.7543 68.7717 73.8512 70.1763H73.8491Z" fill="#F3B01B"/>
<path d="M75.8631 81.0582C75.8631 81.0582 75.3935 89.8323 79.5468 92.3618C79.5468 92.3618 76.1741 92.4244 74.8008 87.428L74.4272 83.6503C74.4272 83.6503 73.7718 83.2434 72.866 84.1805L71.1797 79.6536L72.1168 79.904L73.4901 83.0263C73.4901 83.0263 73.9263 82.8385 74.5211 82.9324L74.6776 80.7472L75.8652 81.0603L75.8631 81.0582Z" fill="#1C160B"/>
<path d="M66.2209 189.516C66.2209 189.516 65.8222 194.6 67.4147 195.172C69.0071 195.743 71.0629 196.361 72.0856 194.646C73.1062 192.93 74.803 191.283 75.9676 190.265C77.1321 189.246 78.758 188.733 79.0397 186.665C79.3215 184.594 79.0919 182.403 76.7732 183.102C74.4544 183.801 68.9341 188.032 68.9341 188.032L66.223 189.516H66.2209Z" fill="#341D10"/>
<path d="M80.2794 160.726C80.2711 160.747 80.2439 160.808 80.2001 160.902C79.7577 161.851 77.7165 166.23 78.6139 167.267C79.6011 168.407 85.2947 170.546 87.6364 171.279C93.6388 173.157 96.3604 171.143 95.6842 169.755C95.008 168.367 90.0428 166.9 89.2184 166.359C88.3919 165.819 86.9247 163.607 86.9247 163.607L80.2794 160.726Z" fill="#341D10"/>
<path d="M56.5346 130.52C53.9049 140.381 62.5642 148.809 61.7878 159.343C61.41 164.464 62.4577 169.58 62.896 174.693C63.2216 178.504 65.1605 189.44 65.1605 189.44C65.1605 189.44 66.4628 190.997 68.9131 190.371C71.3633 189.743 73.7864 186.865 73.7864 186.865C73.7864 186.865 72.1835 168.14 72.7763 159.493C73.3711 150.846 72.1355 142.272 72.1355 142.272C71.8308 140.162 68.6626 137.318 67.546 135.518C66.3627 133.611 59.9031 122.539 57.5427 127.713C57.1127 128.656 56.7809 129.591 56.5325 130.518L56.5346 130.52Z" fill="#385CA3"/>
<path d="M60.951 134.5C61.0491 135.345 61.2223 136.178 61.5125 136.986C63.4013 142.241 69.028 144.579 74.3313 144.389C77.3075 144.282 80.1 142.961 82.6901 141.6C83.6376 141.102 87.1502 139.741 87.5613 138.572C87.553 138.597 79.981 160.169 79.981 160.169C79.981 160.169 81.6131 164.619 87.937 163.41C88.3565 162.329 88.8094 161.254 89.2247 160.169C91.2262 154.935 93.3801 149.711 95.102 144.376C96.5984 139.747 99.5036 135.479 99.6935 130.543C99.7729 128.429 99.5161 125.524 97.5355 124.292C95.8846 123.265 93.5554 123.491 91.7167 123.737C86.4093 124.447 81.1707 126.056 76.0427 127.552C74.0558 128.132 60.8237 131.708 60.8279 132.221C60.8341 132.983 60.8654 133.745 60.9552 134.5H60.951Z" fill="#426DC0"/>
<path opacity="0.4" d="M92.9334 133.102C90.1805 137.343 84.4578 140.671 84.4578 140.671L84.4536 140.684C86.428 139.515 87.5612 138.57 87.5612 138.57L79.981 160.167C79.981 160.167 80.6029 161.855 82.5606 162.87L92.9355 133.102H92.9334Z" fill="#3E3763"/>
<path d="M106.904 95.3819C107.011 95.0897 107.055 94.7412 107.107 94.4866C107.29 93.5683 107.255 92.6228 107.286 91.6899C107.295 91.4144 107.434 88.6782 108.044 89.6216C108.29 90.0035 108.129 90.8029 108.092 91.2203C108.39 90.4209 108.538 89.5945 108.789 88.7826C108.904 88.4111 109.269 86.9585 109.482 88.1168C109.636 88.9558 109.342 89.87 109.198 90.6839C109.142 91.0095 109.092 91.3351 109.039 91.6607C109.448 90.7924 109.787 89.87 110.233 89.0268C110.381 88.7471 111.408 87.1734 111.623 88.0542C111.744 88.5551 111.081 89.1812 110.907 89.6007C110.58 90.3938 110.283 91.3288 110.233 92.2138C110.477 91.7087 110.584 91.118 110.861 90.6338C111.145 90.1434 111.479 89.7072 111.853 89.3023C112.059 89.0769 112.971 88.025 113.084 88.864C113.132 89.2209 112.804 89.4671 112.629 89.6946C112.172 90.2895 111.788 91.2203 111.525 91.9278C111.145 92.9442 111.358 94.0942 110.945 95.0793C110.939 95.0897 110.939 95.0897 110.945 95.0793C111.254 94.8289 113.111 93.1989 113.516 94.0546C113.771 94.5909 112.191 95.5009 111.905 95.8119C111.156 96.6279 110.918 97.78 109.91 98.308C109.392 98.5794 108.818 98.6795 108.276 98.8861C107.664 99.1199 107.111 99.4768 106.518 99.7523C106.796 99.6229 106.453 97.947 106.38 97.707C106.205 97.1247 105.955 96.6258 105.619 96.1479C105.717 96.2898 106.595 95.862 106.698 95.7493C106.787 95.6512 106.854 95.5218 106.904 95.3799V95.3819Z" fill="#F7A584"/>
<path d="M70.0442 93.5453C71.3069 91.4979 75.2139 91.9737 77.1444 92.4746C80.849 93.4347 84.3929 95.0083 88.0933 96.0039C91.3909 96.8909 95.1789 96.1249 98.5663 95.9767C101.206 95.8619 103.853 95.6407 106.487 95.4946C106.487 95.4946 108.689 95.8223 107.845 100.038C107.845 100.038 96.2767 102.802 91.3116 102.895C87.2751 102.971 83.1532 102.509 79.2754 101.389C76.4745 100.579 69.3909 98.8131 69.6497 94.8622C69.6852 94.3363 69.825 93.9022 70.0442 93.5453Z" fill="#8DACBB"/>
<path d="M71.0797 91.3372C67.4815 90.7716 64.0274 91.7839 62.6958 96.0394C60.8905 101.808 59.0414 114.097 58.8368 116.975C58.6323 119.849 56.3428 129.562 56.3386 129.583C56.0485 130.812 58.3046 133.185 59.0184 133.836C60.4084 135.108 62.3661 136.201 64.1005 136.917C67.3062 138.242 71.0316 138.188 74.3501 137.318C76.863 136.658 78.7497 135.352 80.6176 133.603C81.2354 133.025 81.8427 132.273 82.2664 131.534C80.4235 130.051 80.7867 127.223 80.8159 125.165C80.8368 123.727 80.9975 122.297 81.2771 120.886C82.2935 115.769 83.8213 110.958 84.0384 105.69C84.1427 103.142 83.7775 101.182 82.5482 98.9718C81.202 96.5487 79.7515 95.2088 77.3033 93.7144C75.4646 92.5916 73.246 91.6774 71.0776 91.3372H71.0797Z" fill="#CEE6F7"/>
<path d="M83.4205 112.22C83.9819 109.597 86.9185 96.92 78.424 92.4245L70.9919 89.49C70.9919 89.49 64.8288 89.4128 62.6958 96.0393C60.5628 102.666 58.8764 116.781 58.1898 118.342C57.5031 119.903 56.566 120.84 57.0648 122.026C57.5636 123.213 64.3091 131.392 80.6718 128.145C80.6718 128.145 81.6089 128.521 81.5463 127.396C81.4837 126.271 81.3585 125.584 81.4211 124.96C81.4837 124.336 82.857 114.844 83.4205 112.22ZM80.102 111.488C77.7875 111.488 75.9091 108.541 75.9091 104.907C75.9091 101.274 77.7854 98.3267 80.102 98.3267C82.4187 98.3267 84.295 101.274 84.295 104.907C84.295 108.541 82.4187 111.488 80.102 111.488Z" fill="#D95040"/>
<path d="M115.729 104.252C115.701 104.099 115.672 103.947 115.645 103.795C115.48 102.904 115.207 102.008 115.194 101.096C115.188 100.704 115.23 99.823 115.676 100.56C115.998 101.088 116.219 101.664 116.455 102.232C116.54 102.438 116.634 102.643 116.716 102.851C116.947 101.092 117.386 99.343 117.989 97.6713C118.122 97.2998 118.55 95.8471 118.797 97.0055C118.976 97.8445 118.632 98.7586 118.467 99.5747C118.4 99.9003 118.342 100.226 118.281 100.551C118.759 99.6832 119.151 98.7607 119.675 97.9175C119.848 97.6379 121.049 96.0621 121.299 96.945C121.441 97.4459 120.667 98.072 120.464 98.4915C120.082 99.2846 119.736 100.22 119.675 101.105C119.961 100.599 120.084 100.009 120.41 99.5246C120.74 99.0341 121.132 98.5979 121.566 98.193C121.808 97.9676 122.871 96.9157 123.004 97.7547C123.061 98.1116 122.676 98.3579 122.472 98.5854C122.169 98.9235 121.988 99.3034 121.825 99.7229C121.508 100.537 121.305 101.347 120.948 102.144C121.103 101.797 122.687 99.6874 123.227 99.9587C123.726 100.209 122.706 101.656 122.541 101.9C121.933 102.795 121.739 104.016 121.472 105.047C121.276 105.803 121.005 106.656 120.341 107.126C119.565 107.675 118.715 107.758 117.791 107.773C116.783 107.787 116.238 108.286 115.332 108.645C115.658 108.516 115.255 106.84 115.171 106.6C114.967 106.018 114.673 105.519 114.282 105.041C114.794 104.92 115.311 104.853 115.793 104.63C115.77 104.504 115.749 104.379 115.726 104.254L115.729 104.252Z" fill="#F7A584"/>
<path d="M77.3637 101.468C77.9648 99.5894 80.4839 98.6816 82.7484 98.6523C86.3549 98.6064 98.2054 105.256 98.2054 105.256L115.207 104.319C115.207 104.319 117.409 104.646 116.565 108.862C116.565 108.862 104.997 111.626 100.032 111.72C95.9951 111.795 91.8731 111.333 87.9953 110.213C85.4094 109.466 82.8695 108.589 80.6258 107.067C79.551 106.339 78.3301 105.46 77.7394 104.265C77.1947 103.165 77.1195 102.234 77.3658 101.464L77.3637 101.468Z" fill="#CEE6F7"/>
<path d="M60.3145 106.537C60.3145 106.537 66.9973 111.907 76.863 113.406L75.8006 116.528C75.8006 116.528 65.5593 115.654 59.751 109.72L60.3124 106.535L60.3145 106.537Z" fill="#F2BD42"/>
<path opacity="0.4" d="M101.403 350.584C100.81 354.616 89.4645 356.288 76.0654 354.318C62.6663 352.346 52.2852 347.478 52.8779 343.444C53.4707 339.41 64.816 337.738 78.2151 339.71C91.6142 341.683 101.995 346.55 101.403 350.584Z" fill="#E99223"/>
<path d="M89.1245 271.801L90.3935 285.336L89.1245 289.263L88.1582 270.956L89.1245 271.801Z" fill="#EC1E24"/>
<path d="M79.4592 349.315C78.9312 351.112 78.7141 352.6 79.3444 354.401C79.5135 354.888 79.453 354.873 80.0645 355.004C81.5567 355.322 83.2285 355.359 84.7354 355.073C85.6161 354.906 86.1901 354.372 86.9519 353.982C87.9077 353.493 88.8365 352.951 89.8028 352.483C91.3389 351.74 93.3342 350.983 94.2504 349.432C95.0372 348.1 94.2567 347.316 92.898 347.059C90.3914 346.587 87.7116 346.984 85.2133 347.307C84.2199 347.437 83.4831 347.798 82.5919 348.08C82.329 348.163 79.814 348.096 79.8599 347.915C79.7472 348.363 79.6012 348.833 79.4592 349.313V349.315Z" fill="#121111"/>
<path d="M65.5239 342.555C65.2631 343.795 64.8561 345.823 65.908 346.808C66.7741 347.62 68.6629 347.472 69.7273 347.305C71.7497 346.988 73.4987 345.702 75.2122 344.698C76.5604 343.907 78.3303 343.07 79.0545 341.587C79.6765 340.311 78.9063 339.652 77.6457 339.516C75.3207 339.268 72.8997 339.825 70.6394 340.303C69.7399 340.493 69.0929 340.879 68.2998 341.198C68.066 341.294 65.7619 341.415 65.7911 341.246C65.7201 341.664 65.62 342.104 65.526 342.553L65.5239 342.555Z" fill="#121111"/>
<path d="M105.368 253.42L102.645 264.976L115.845 272.721L119.197 259.635L105.368 253.42Z" fill="#504F4D"/>
<path d="M105.863 254.311L103.39 264.803L115.376 271.836L118.419 259.955L105.863 254.311Z" fill="#B4DCF3"/>
<path d="M105.368 253.42L106.163 253.464L119.878 259.385L119.197 259.635L105.368 253.42Z" fill="#807F7E"/>
<path d="M119.877 259.385L116.465 272.496L115.845 272.721L119.197 259.635L119.877 259.385Z" fill="#666564"/>
<path d="M99.0318 260.272C99.0318 260.272 101.611 259.009 102.363 259.009C103.114 259.009 103.845 259.283 104.45 259.21C105.053 259.136 105.656 259.034 106.255 258.928C106.623 258.863 107.482 258.327 107.795 258.525C108.497 258.972 106.476 259.631 106.249 259.706C105.395 259.986 104.573 260.581 103.891 261.159C103.594 261.411 103.068 261.954 103.613 262.286C104.03 262.538 105.218 262.326 105.483 262.745C105.834 263.296 104.485 263.238 104.227 263.227C103.44 263.198 102.83 263.634 102.062 263.665C100.925 263.711 100.071 263.029 98.8941 263.329C99.1696 262.24 98.9901 261.284 98.7793 260.205L99.0318 260.27V260.272Z" fill="#E48B6D"/>
<path d="M67.6461 288.568C67.6461 288.568 67.4646 301.437 67.4646 307.511C67.4646 313.584 65.198 343.308 65.198 343.308C65.198 343.308 69.3659 345.03 73.083 341.405C73.083 341.405 74.8048 320.288 74.8048 319.835C74.8048 319.382 75.6209 308.596 75.7106 307.872C75.8004 307.148 77.2509 295.637 77.2509 295.637L69.1843 285.125L67.6441 288.568H67.6461Z" fill="#14222D"/>
<path d="M68.3706 288.024C68.3706 288.024 69.2764 293.824 74.8051 299.171C74.8051 299.171 76.9798 306.15 77.7061 311.134C78.4303 316.118 78.9751 351.555 78.9751 351.555C78.9751 351.555 83.0532 352.642 87.313 349.288C87.313 349.288 87.9474 322.281 87.4027 317.024C86.858 311.766 87.674 293.189 87.7659 292.373C87.8556 291.557 88.3106 285.939 88.3106 285.939L68.3727 288.024H68.3706Z" fill="#263F54"/>
<path d="M111.577 267.201C111.577 267.201 111.782 266.543 112.665 266.159C113.548 265.773 114.41 265.072 114.75 264.778C115.09 264.483 115.52 263.601 115.973 263.78C115.973 263.78 116.154 263.962 116.154 264.438C116.154 264.913 115.747 265.458 115.61 265.752C115.474 266.047 114.998 267.021 114.998 267.021C114.998 267.021 117.106 266.433 117.423 266.182C117.695 265.969 117.966 265.091 118.354 265.124C118.803 265.164 118.529 265.911 118.486 266.141C118.415 266.518 118.559 266.873 118.486 267.247C118.413 267.608 118.39 267.787 118.396 268.157C118.404 268.701 118.004 269.563 117.557 269.885C117.154 270.173 116.593 270.246 116.129 270.394C115.15 270.705 114.117 271.081 113.076 271.099C111.83 271.122 111.579 267.203 111.579 267.203L111.577 267.201Z" fill="#F7A584"/>
<path d="M64.643 257.719C64.6638 257.655 64.6847 257.588 64.7077 257.523C67.2789 250.079 78.353 258.368 82.1744 260.622L98.6227 259.671C98.6227 259.671 100.752 260.005 99.9376 264.287C99.9376 264.287 88.7446 267.097 83.9422 267.193C80.0373 267.27 76.0509 266.8 72.2963 265.663C68.6355 264.552 62.9837 262.966 64.643 257.721V257.719Z" fill="#14222D"/>
<path d="M70.5388 246.144C69.8939 243.373 69.4765 238.593 71.9351 236.519C72.9118 235.694 74.498 235.108 75.6918 234.684C78.0398 233.853 81.0076 233.565 83.0592 235.26C84.157 236.166 84.7456 237.493 85.0691 238.852C85.4322 240.376 85.8434 242.6 85.5574 244.151C84.9125 247.662 83.6248 252.923 79.0958 253.447C72.0937 254.257 70.5388 246.144 70.5388 246.144Z" fill="#F7A584"/>
<path d="M78.305 248.759C77.9105 248.985 77.5683 249.294 77.2009 249.557C76.1616 250.3 75.0387 250.755 73.9284 251.362C74.206 251.164 74.4147 250.884 74.5566 250.575C74.2143 250.89 73.8219 251.153 73.4087 251.362C73.4734 251.178 73.4797 250.963 73.5339 250.782C73.4421 250.997 73.3169 251.233 73.1979 251.412C71.3947 250.06 70.4722 247.651 69.7542 245.606C68.5249 242.108 68.8776 238.036 71.3968 235.172C73.0831 233.257 75.6982 232.574 78.1505 232.57C79.3924 232.568 80.6446 232.714 81.805 233.177C83.0969 233.695 83.9923 234.684 85.1736 235.341C86.0001 235.801 88.2833 236.339 88.7258 235.106C88.6402 235.688 88.3668 236.297 87.9285 236.696C88.7634 236.308 89.3811 235.49 89.3811 234.561C89.3853 236.65 89.1182 238.842 87.701 240.488C86.4196 241.976 84.4681 243.12 82.7526 244.036C82.6253 244.105 80.6655 245.026 80.6968 245.122C80.1562 243.498 78.9249 244.051 78.1965 245.142C77.7937 245.748 77.4681 246.587 77.5077 247.323C77.5182 247.505 77.9147 248.985 78.3133 248.757L78.305 248.759Z" fill="#121111"/>
<path d="M73.5214 251.324L72.9829 253.921C72.9829 253.921 75.3831 256.15 80.2606 255.121L80.2856 252.917C80.2856 252.917 76.0468 252.769 73.5235 251.324H73.5214Z" fill="#F7A584"/>
<path d="M80.3336 254.338C80.3336 254.338 88.9094 257.719 89.1536 275.457C89.1536 275.457 89.1056 282.318 89.1536 283.591C89.2037 284.866 89.7463 293.93 89.3059 294.911C88.8655 295.892 79.7659 299.997 66.8301 294.64C66.8301 294.64 67.2162 281.207 67.2162 277.156C67.2162 273.105 62.7728 260.43 64.5364 256.576C66.3 252.721 73.7488 252.654 73.7488 252.654L80.3315 254.336L80.3336 254.338Z" fill="#1F3448"/>
<path d="M79.8913 258.145C79.8913 258.145 81.5255 255.858 87.7972 260.758L97.3351 268.795L111.383 266.379C111.383 266.379 113.867 267.62 113.082 271.279C113.082 271.279 100.08 276.376 96.6172 276.309C93.1547 276.244 80.5445 267.489 80.5445 267.489C80.5445 267.489 74.2061 261.543 79.8913 258.145Z" fill="#263F54"/>
<path d="M72.4027 252.815C72.4027 252.815 72.1981 251.75 73.1269 251.727C74.0556 251.704 79.72 252.474 80.5131 253.267C81.3062 254.061 81.2602 254.923 81.2602 254.923C81.2602 254.923 76.5476 253.247 72.4006 252.815H72.4027Z" fill="#14222D"/>
<g opacity="0.9">
<path d="M112.483 260.654L112.214 261.382C112.214 261.382 112.214 261.391 112.21 261.393C112.143 261.574 111.55 261.522 110.887 261.278C110.223 261.034 109.739 260.689 109.805 260.508L110.073 259.779L112.481 260.652L112.483 260.654Z" fill="#F3B01B"/>
<path d="M110.075 259.781C110.008 259.963 110.492 260.307 111.158 260.551C111.821 260.796 112.414 260.848 112.481 260.666C112.548 260.485 112.064 260.14 111.4 259.896C110.736 259.652 110.143 259.6 110.077 259.781H110.075Z" fill="#FDD148"/>
<path opacity="0.8" d="M112.009 260.545C111.949 260.71 111.454 260.681 110.905 260.479C110.356 260.276 109.96 259.98 110.02 259.813C110.081 259.648 110.575 259.677 111.124 259.88C111.673 260.082 112.07 260.378 112.009 260.545Z" fill="#E89723"/>
<path d="M112.183 261.47L111.913 262.198C111.913 262.198 111.913 262.207 111.911 262.209C111.844 262.39 111.252 262.338 110.588 262.094C109.924 261.85 109.44 261.505 109.505 261.324L109.772 260.595L112.18 261.468L112.183 261.47Z" fill="#F3B01B"/>
<path d="M111.575 262.972L111.306 263.701C111.306 263.701 111.306 263.709 111.304 263.711C111.237 263.893 110.645 263.841 109.981 263.597C109.317 263.352 108.833 263.008 108.9 262.826L109.167 262.098L111.575 262.97V262.972Z" fill="#29A67F"/>
<path d="M109.167 262.1C109.1 262.282 109.584 262.626 110.248 262.87C110.911 263.115 111.504 263.167 111.571 262.985C111.638 262.804 111.153 262.459 110.49 262.215C109.826 261.971 109.233 261.919 109.167 262.1Z" fill="#68C3A0"/>
<path d="M112.542 260.531C112.53 260.563 112.496 260.58 112.465 260.569C112.433 260.558 112.418 260.523 112.431 260.489C112.444 260.458 112.477 260.441 112.509 260.451C112.54 260.462 112.555 260.498 112.542 260.531Z" fill="#CEE6F7"/>
<path d="M110.188 259.688C110.175 259.719 110.142 259.736 110.11 259.726C110.079 259.715 110.064 259.68 110.077 259.646C110.089 259.614 110.123 259.598 110.154 259.608C110.186 259.619 110.201 259.654 110.188 259.688Z" fill="#CEE6F7"/>
<path d="M110.079 259.727C110.079 259.727 110.822 258.362 112.116 257.903C112.116 257.903 112.817 258.707 112.485 260.61C112.485 260.61 112.439 260.938 111.122 260.481C111.122 260.481 110.07 260.101 110.081 259.725L110.079 259.727Z" fill="#EC1E24"/>
<path opacity="0.3" d="M112.116 257.905C110.824 258.364 110.079 259.729 110.079 259.729C110.072 259.919 110.342 260.111 110.607 260.255C111.001 259.009 111.805 258.191 112.116 257.907V257.905Z" fill="white"/>
<path d="M111.25 260.352C111.238 260.383 111.204 260.4 111.173 260.389C111.141 260.379 111.126 260.343 111.139 260.31C111.152 260.278 111.185 260.259 111.217 260.272C111.248 260.282 111.263 260.318 111.25 260.352Z" fill="#CEE6F7"/>
<path d="M112.146 260.571C112.133 260.602 112.099 260.619 112.068 260.609C112.036 260.598 112.022 260.562 112.034 260.529C112.047 260.497 112.081 260.478 112.112 260.491C112.144 260.501 112.158 260.537 112.146 260.571Z" fill="#CEE6F7"/>
<path d="M110.373 259.917C110.363 259.947 110.333 259.961 110.306 259.953C110.281 259.943 110.268 259.911 110.279 259.884C110.289 259.854 110.319 259.84 110.346 259.848C110.371 259.856 110.384 259.888 110.373 259.917Z" fill="#CEE6F7"/>
<path d="M110.718 264.968H110.722L110.811 264.978C110.811 264.978 111.291 265.437 111.237 266.161L111.195 266.153L110.983 265.84C110.983 265.84 110.738 265.458 110.734 265.452C110.732 265.443 110.718 264.97 110.718 264.97V264.968Z" fill="#E74D6B"/>
<path d="M110.717 264.968C110.717 264.968 111.166 265.318 111.193 266.153C111.193 266.153 110.743 265.853 110.319 265.861L110.717 264.968Z" fill="#E31D39"/>
<path d="M108.526 263.857C108.526 263.857 108.292 264.713 108.286 265.105C108.282 265.287 108.645 265.548 109.202 265.752C109.229 265.763 109.256 265.771 109.284 265.782C109.288 265.782 109.292 265.784 109.296 265.786C109.296 265.786 109.307 265.79 109.327 265.796C109.59 265.884 109.835 265.932 110.014 265.94C110.075 265.942 110.133 265.94 110.181 265.932C110.256 265.919 110.29 265.899 110.321 265.851L110.932 264.728L108.524 263.86L108.526 263.857Z" fill="#A6B0C7"/>
<path d="M110.932 264.742C110.865 264.924 110.273 264.872 109.609 264.628C108.945 264.383 108.461 264.039 108.528 263.858C108.595 263.676 109.187 263.728 109.851 263.972C110.515 264.216 110.999 264.561 110.932 264.742Z" fill="#B5BFD7"/>
<path opacity="0.3" d="M108.793 263.964C108.735 264.123 109.131 264.415 109.68 264.617C110.227 264.818 110.719 264.853 110.778 264.694C110.836 264.536 110.44 264.244 109.893 264.041C109.346 263.841 108.854 263.805 108.795 263.964H108.793Z" fill="#020202"/>
<path d="M108.597 264.175H108.593L108.52 264.122C108.52 264.122 107.856 264.162 107.428 264.749L107.466 264.769L107.831 264.667C107.831 264.667 108.265 264.536 108.271 264.531C108.277 264.527 108.597 264.175 108.597 264.175Z" fill="#E74D6B"/>
<path d="M108.597 264.175C108.597 264.175 108.027 264.152 107.466 264.769C107.466 264.769 108.004 264.832 108.321 265.114L108.597 264.175Z" fill="#E31D39"/>
<path d="M109.248 265.828C109.238 265.859 109.202 265.876 109.171 265.863L109.129 265.846C109.098 265.836 109.081 265.8 109.094 265.769L109.472 264.742C109.484 264.711 109.517 264.694 109.549 264.707L109.591 264.724C109.622 264.734 109.639 264.769 109.626 264.803L109.248 265.828Z" fill="#E31D39"/>
<path d="M108.502 259.878L108.479 259.91L110.136 261.124L110.159 261.092L108.502 259.878Z" fill="#0B0B0B"/>
<path d="M108.161 259.99L108.044 259.717L108.221 259.479L108.517 259.514L108.634 259.788L108.457 260.026L108.161 259.99ZM108.09 259.723L108.19 259.955L108.44 259.984L108.591 259.783L108.49 259.554L108.242 259.525L108.092 259.725L108.09 259.723Z" fill="#0B0B0B"/>
<path d="M108.205 264.548L106.548 263.333L106.571 263.302L108.228 264.515L108.205 264.548Z" fill="#0B0B0B"/>
<path d="M106.23 263.39L106.111 263.116L106.289 262.879L106.585 262.914L106.704 263.187L106.527 263.425L106.23 263.39ZM106.159 263.121L106.26 263.352L106.51 263.382L106.66 263.181L106.56 262.949L106.31 262.92L106.159 263.121Z" fill="#0B0B0B"/>
<path d="M108.733 263.814L107.075 262.601L107.1 262.568L108.758 263.782L108.733 263.814Z" fill="#0B0B0B"/>
<path d="M106.758 262.657L106.639 262.384L106.817 262.146L107.113 262.181L107.23 262.455L107.052 262.693L106.756 262.657H106.758ZM106.687 262.388L106.787 262.618L107.038 262.647L107.188 262.447L107.088 262.217L106.84 262.188L106.689 262.388H106.687Z" fill="#0B0B0B"/>
<path d="M111.984 259.932L111.989 259.89L114.036 260.04L114.034 260.08L111.984 259.932Z" fill="#0B0B0B"/>
<path d="M114.238 260.328L113.99 260.163L114.009 259.867L114.276 259.735L114.524 259.9L114.505 260.199L114.238 260.33V260.328ZM114.032 260.142L114.24 260.282L114.466 260.172L114.483 259.921L114.274 259.781L114.048 259.892L114.032 260.142Z" fill="#0B0B0B"/>
<path d="M110.809 263.306L110.811 263.265L112.859 263.415L112.857 263.455L110.809 263.306Z" fill="#0B0B0B"/>
<path d="M113.061 263.703L112.813 263.538L112.832 263.242L113.099 263.11L113.347 263.275L113.328 263.571L113.061 263.703ZM112.857 263.517L113.065 263.657L113.291 263.546L113.307 263.296L113.099 263.156L112.873 263.267L112.857 263.517Z" fill="#0B0B0B"/>
</g>
<defs>
<linearGradient id="paint0_linear_1079_191" x1="285.066" y1="280.467" x2="293.748" y2="258.417" gradientUnits="userSpaceOnUse">
<stop stop-color="#80D485"/>
<stop offset="1" stop-color="#58A55D"/>
</linearGradient>
<linearGradient id="paint1_linear_1079_191" x1="44.6049" y1="61.6897" x2="49.6168" y2="46.153" gradientUnits="userSpaceOnUse">
<stop stop-color="#80D485"/>
<stop offset="1" stop-color="#58A55D"/>
</linearGradient>
<linearGradient id="paint2_linear_1079_191" x1="9.24149" y1="272.704" x2="16.8035" y2="254.785" gradientUnits="userSpaceOnUse">
<stop stop-color="#80D485"/>
<stop offset="1" stop-color="#58A55D"/>
</linearGradient>
<linearGradient id="paint3_linear_1079_191" x1="245.811" y1="62.0815" x2="254.207" y2="37.0022" gradientUnits="userSpaceOnUse">
<stop stop-color="#80D485"/>
<stop offset="1" stop-color="#58A55D"/>
</linearGradient>
<linearGradient id="paint4_linear_1079_191" x1="147.079" y1="322.244" x2="152.716" y2="114.975" gradientUnits="userSpaceOnUse">
<stop stop-color="#DEFFE0"/>
<stop offset="1" stop-color="#58A55D"/>
</linearGradient>
<linearGradient id="paint5_linear_1079_191" x1="229.393" y1="97.9739" x2="229.393" y2="309.072" gradientUnits="userSpaceOnUse">
<stop/>
<stop offset="1" stop-color="#666666"/>
</linearGradient>
<linearGradient id="paint6_linear_1079_191" x1="71.8176" y1="73.9744" x2="71.8176" y2="316.677" gradientUnits="userSpaceOnUse">
<stop/>
<stop offset="1" stop-color="#666666"/>
</linearGradient>
<linearGradient id="paint7_linear_1079_191" x1="272.93" y1="145.31" x2="272.93" y2="256.292" gradientUnits="userSpaceOnUse">
<stop/>
<stop offset="1" stop-color="#666666"/>
</linearGradient>
<linearGradient id="paint8_linear_1079_191" x1="266.345" y1="187.005" x2="266.345" y2="266.867" gradientUnits="userSpaceOnUse">
<stop/>
<stop offset="1" stop-color="#666666"/>
</linearGradient>
<linearGradient id="paint9_linear_1079_191" x1="177.515" y1="155.506" x2="162.905" y2="158.011" gradientUnits="userSpaceOnUse">
<stop stop-color="#80D1E5"/>
<stop offset="1" stop-color="#EC1977"/>
</linearGradient>
</defs>
</svg>
